<?xml version="1.0" encoding="UTF-8"?>
<svg id="Layer_1" data-name="Layer 1" xmlns="http://www.w3.org/2000/svg" viewBox="0 0 1080 1080">
  <defs>
    <style>
      .cls-1 {
        font-family: Luminari-Regular, Luminari;
        font-size: 262px;
      }

      .cls-1, .cls-2 {
        fill: #d9d3c2;
      }
    </style>
  </defs>
  <path class="cls-2" d="M792.8,144s-369.3,121.5-217.4,391.9c161.3,287.1-22.3,418.7-326.8,326.7l22.4,52.6s239.6,31,352.5-98.5c112.9-129.6-63.1-370.3-63.1-370.3,0,0-50.8-152.5,161.3-248,14.7-6.6,30.6-12.9,47.9-18.9l23.2-35.5Z"/>
  <path class="cls-2" d="M646.3,222.3l30.7-44.7s-285,59.5-227.4,188.2c57.6,128.7,235.7,332.5,141.1,466.7-94.6,134.2-364.3,13.9-380.1,0-15.8-13.9,16.6,94.9,58.9,90.3s458.1,62.5,358.5-291.6c-99.6-354.1-227.4-387.2,18.3-408.8Z"/>
  <path class="cls-2" d="M525.9,438.1s-48.9,133.2,35.8,358.4c84.7,225.2-246.9,149.6-246.9,149.6,0,0-8.3,10.8,8.3,21.6,16.6,10.8,214.8,30.5,284.7-89.5,69.9-120-61.9-1.5-81.8-440.2Z"/>
  <text class="cls-1" transform="translate(639.6 881.7)"><tspan x="0" y="0">v</tspan></text>
</svg>