<?xml version="1.0" encoding="UTF-8"?>
<svg id="Layer_1" data-name="Layer 1" xmlns="http://www.w3.org/2000/svg" viewBox="0 0 1080 1080">
  <defs>
    <style>
      .cls-1 {
        font-family: Luminari-Regular, Luminari;
        font-size: 262px;
      }

      .cls-1, .cls-2 {
        fill: #231f20;
      }
    </style>
  </defs>
  <path class="cls-2" d="M792.82,143.96s-369.32,121.49-217.44,391.86c161.26,287.07-22.32,418.67-326.78,326.68l22.41,52.65s239.64,31.05,352.51-98.54c112.87-129.59-63.07-370.26-63.07-370.26,0,0-50.82-152.51,161.26-247.98,14.67-6.6,30.59-12.93,47.88-18.92l23.24-35.48Z"/>
  <path class="cls-2" d="M646.34,222.27l30.71-44.74s-285.04,59.49-227.4,188.22c57.64,128.73,235.7,332.47,141.09,466.69-94.61,134.22-364.34,13.88-380.11,0-15.77-13.88,16.6,94.88,58.92,90.25s458.12,62.48,358.53-291.58c-99.59-354.07-227.4-387.24,18.26-408.83Z"/>
  <path class="cls-2" d="M525.91,438.12s-48.88,133.19,35.77,358.43c84.65,225.24-246.9,149.65-246.9,149.65,0,0-8.3,10.8,8.3,21.6,16.6,10.8,214.76,30.55,284.66-89.48,69.9-120.03-61.92-1.5-81.84-440.2Z"/>
  <text class="cls-1" transform="translate(639.63 881.69)"><tspan x="0" y="0">v</tspan></text>
</svg>